<svg width="30" height="30" viewBox="0 0 30 30" fill="none" xmlns="http://www.w3.org/2000/svg">
<g clip-path="url(#clip0_7411_373)">
<path d="M15 22.5C19.1421 22.5 22.5 19.1421 22.5 15C22.5 10.8579 19.1421 7.5 15 7.5C10.8579 7.5 7.5 10.8579 7.5 15C7.5 19.1421 10.8579 22.5 15 22.5Z" fill="white"/>
<path d="M14.9995 4.49947C14.1704 4.49947 13.4995 3.82781 13.4995 2.99947V1.5C13.4995 0.67166 14.1704 0 14.9995 0C15.8286 0 16.4995 0.67166 16.4995 1.5V2.99947C16.4995 3.82781 15.8286 4.49947 14.9995 4.49947Z" fill="white"/>
<path d="M23.4858 8.01431C23.1021 8.01431 22.7183 7.86782 22.4253 7.57485C21.8394 6.98909 21.8394 6.03935 22.4253 5.45358L23.4858 4.39321C24.0718 3.80763 25.021 3.80745 25.6069 4.39339C26.1929 4.97915 26.1929 5.9289 25.6069 6.51466L24.5464 7.57503C24.2534 7.86782 23.8696 8.01431 23.4858 8.01431Z" fill="white"/>
<path d="M28.5 16.5H27C26.1709 16.5 25.5 15.8283 25.5 15C25.5 14.1717 26.1709 13.5 27 13.5H28.5C29.3291 13.5 30 14.1717 30 15C30 15.8283 29.3291 16.5 28.5 16.5Z" fill="white"/>
<path d="M24.5464 26.0459C24.1626 26.0459 23.7788 25.8996 23.4858 25.6067L22.4253 24.5463C21.8394 23.9605 21.8394 23.0108 22.4253 22.425C23.0112 21.8391 23.9604 21.8389 24.5464 22.4248L25.6069 23.4852C26.1929 24.071 26.1929 25.0207 25.6069 25.6065C25.314 25.8994 24.9302 26.0459 24.5464 26.0459Z" fill="white"/>
<path d="M14.9995 29.9998C14.1704 29.9998 13.4995 29.3282 13.4995 28.4998V27.0004C13.4995 26.172 14.1704 25.5004 14.9995 25.5004C15.8286 25.5004 16.4995 26.172 16.4995 27.0004V28.4998C16.4995 29.3282 15.8286 29.9998 14.9995 29.9998Z" fill="white"/>
<path d="M5.45361 26.046C5.06982 26.046 4.68604 25.8996 4.39307 25.6066C3.80713 25.0208 3.80713 24.0711 4.39307 23.4853L5.45361 22.425C6.03955 21.8394 6.98877 21.8392 7.57471 22.4251C8.16064 23.0109 8.16064 23.9606 7.57471 24.5464L6.51416 25.6068C6.22119 25.8996 5.8374 26.046 5.45361 26.046Z" fill="white"/>
<path d="M3 16.5H1.5C0.670898 16.5 0 15.8283 0 15C0 14.1717 0.670898 13.5 1.5 13.5H3C3.8291 13.5 4.5 14.1717 4.5 15C4.5 15.8283 3.8291 16.5 3 16.5Z" fill="white"/>
<path d="M6.51416 8.01444C6.13037 8.01444 5.74658 7.86813 5.45361 7.57516L4.39307 6.51479C3.80713 5.92903 3.80713 4.97928 4.39307 4.39352C4.979 3.80758 5.92822 3.80741 6.51416 4.39334L7.57471 5.45372C8.16064 6.03948 8.16064 6.98922 7.57471 7.57499C7.28174 7.86795 6.89795 8.01444 6.51416 8.01444Z" fill="white"/>
</g>
<defs>
<clipPath id="clip0_7411_373">
<rect width="30" height="30" fill="white"/>
</clipPath>
</defs>
</svg>
